%TF.GenerationSoftware,KiCad,Pcbnew,9.0.6*%
%TF.CreationDate,2026-04-25T20:10:34+07:00*%
%TF.ProjectId,Untitled,556e7469-746c-4656-942e-6b696361645f,rev?*%
%TF.SameCoordinates,Original*%
%TF.FileFunction,Profile,NP*%
%FSLAX46Y46*%
G04 Gerber Fmt 4.6, Leading zero omitted, Abs format (unit mm)*
G04 Created by KiCad (PCBNEW 9.0.6) date 2026-04-25 20:10:34*
%MOMM*%
%LPD*%
G01*
G04 APERTURE LIST*
%ADD10C,0.150000*%
%TA.AperFunction,Profile*%
%ADD11C,0.050000*%
%TD*%
%ADD12C,0.050000*%
G04 APERTURE END LIST*
D10*
X59285714Y-38304819D02*
X58714286Y-38304819D01*
X59000000Y-38304819D02*
X59000000Y-37304819D01*
X59000000Y-37304819D02*
X58904762Y-37447676D01*
X58904762Y-37447676D02*
X58809524Y-37542914D01*
X58809524Y-37542914D02*
X58714286Y-37590533D01*
D11*
X58500000Y-38500000D02*
X58500000Y-38413580D01*
X59500000Y-38500000D02*
X59500000Y-38413580D01*
X58500000Y-39000000D02*
X59500000Y-39000000D01*
X58500000Y-39000000D02*
X59626504Y-38413579D01*
X58500000Y-39000000D02*
X59626504Y-39586421D01*
X59500000Y-39000000D02*
X58373496Y-39586421D01*
X59500000Y-39000000D02*
X58373496Y-38413579D01*
D12*
X200750000Y-29750000D02*
X200747757Y-29735860D01*
X200745498Y-29721744D01*
X200743222Y-29707650D01*
X200740930Y-29693581D01*
X200738621Y-29679533D01*
X200736296Y-29665510D01*
X200733954Y-29651508D01*
X200731596Y-29637531D01*
X200729222Y-29623574D01*
X200726831Y-29609643D01*
X200724424Y-29595733D01*
X200722000Y-29581847D01*
X200719560Y-29567982D01*
X200717104Y-29554142D01*
X200714632Y-29540323D01*
X200712143Y-29526528D01*
X200709638Y-29512755D01*
X200707118Y-29499005D01*
X200704580Y-29485277D01*
X200702027Y-29471573D01*
X200699458Y-29457890D01*
X200696872Y-29444231D01*
X200694271Y-29430593D01*
X200691653Y-29416979D01*
X200689019Y-29403386D01*
X200686370Y-29389817D01*
X200683704Y-29376269D01*
X200681023Y-29362745D01*
X200678325Y-29349241D01*
X200675612Y-29335762D01*
X200672882Y-29322303D01*
X200670137Y-29308868D01*
X200667376Y-29295454D01*
X200664600Y-29282064D01*
X200661807Y-29268693D01*
X200658999Y-29255348D01*
X200656174Y-29242022D01*
X200653335Y-29228721D01*
X200650479Y-29215439D01*
X200647608Y-29202182D01*
X200644720Y-29188944D01*
X200641818Y-29175731D01*
X200638899Y-29162537D01*
X200635966Y-29149368D01*
X200633016Y-29136218D01*
X200630051Y-29123093D01*
X200627071Y-29109987D01*
X200624075Y-29096905D01*
X200621063Y-29083843D01*
X200618036Y-29070805D01*
X200614993Y-29057786D01*
X200611936Y-29044792D01*
X200608862Y-29031816D01*
X200605774Y-29018865D01*
X200602669Y-29005933D01*
X200599550Y-28993026D01*
X200596415Y-28980137D01*
X200593265Y-28967272D01*
X200590100Y-28954427D01*
X200586919Y-28941605D01*
X200583723Y-28928803D01*
X200580512Y-28916024D01*
X200577285Y-28903264D01*
X200574044Y-28890529D01*
X200570787Y-28877812D01*
X200567516Y-28865119D01*
X200564228Y-28852445D01*
X200560926Y-28839795D01*
X200557609Y-28827163D01*
X200554277Y-28814555D01*
X200550929Y-28801966D01*
X200547567Y-28789401D01*
X200544190Y-28776854D01*
X200540798Y-28764331D01*
X200537390Y-28751827D01*
X200533968Y-28739346D01*
X200530530Y-28726884D01*
X200527079Y-28714446D01*
X200523611Y-28702025D01*
X200520130Y-28689629D01*
X200516632Y-28677251D01*
X200513121Y-28664896D01*
X200509594Y-28652560D01*
X200506054Y-28640247D01*
X200502497Y-28627952D01*
X200498927Y-28615682D01*
X200495341Y-28603429D01*
X200491741Y-28591199D01*
X200488125Y-28578988D01*
X200484496Y-28566800D01*
X200480851Y-28554630D01*
X200477193Y-28542484D01*
X200473519Y-28530355D01*
X200469831Y-28518251D01*
X200466128Y-28506163D01*
X200462411Y-28494100D01*
X200458678Y-28482053D01*
X200454932Y-28470031D01*
X200451171Y-28458025D01*
X200447396Y-28446044D01*
X200443605Y-28434080D01*
X200439801Y-28422139D01*
X200435981Y-28410216D01*
X200432149Y-28398316D01*
X200428300Y-28386434D01*
X200424438Y-28374575D01*
X200420561Y-28362733D01*
X200416671Y-28350914D01*
X200412765Y-28339113D01*
X200408845Y-28327335D01*
X200404911Y-28315574D01*
X200400963Y-28303837D01*
X200397000Y-28292116D01*
X200393023Y-28280419D01*
X200389032Y-28268739D01*
X200385027Y-28257082D01*
X200381007Y-28245442D01*
X200376973Y-28233826D01*
X200372925Y-28222225D01*
X200368863Y-28210649D01*
X200364786Y-28199089D01*
X200360696Y-28187552D01*
X200356591Y-28176032D01*
X200352473Y-28164535D01*
X200348339Y-28153055D01*
X200344193Y-28141598D01*
X200340031Y-28130157D01*
X200335857Y-28118740D01*
X200331667Y-28107339D01*
X200327465Y-28095962D01*
X200323247Y-28084600D01*
X200319017Y-28073262D01*
X200314771Y-28061940D01*
X200310513Y-28050641D01*
X200306239Y-28039358D01*
X200301953Y-28028099D01*
X200297652Y-28016855D01*
X200293338Y-28005635D01*
X200289008Y-27994430D01*
X200284667Y-27983249D01*
X200280310Y-27972084D01*
X200275941Y-27960942D01*
X200267159Y-27938712D01*
X200258322Y-27916560D01*
X200249431Y-27894486D01*
X200240484Y-27872489D01*
X200231482Y-27850569D01*
X200222426Y-27828727D01*
X200213316Y-27806961D01*
X200204150Y-27785272D01*
X200194931Y-27763659D01*
X200185657Y-27742122D01*
X200176329Y-27720662D01*
X200166947Y-27699278D01*
X200157511Y-27677969D01*
X200148021Y-27656736D01*
X200138477Y-27635579D01*
X200128880Y-27614497D01*
X200119229Y-27593490D01*
X200109525Y-27572558D01*
X200099768Y-27551700D01*
X200089957Y-27530918D01*
X200080093Y-27510210D01*
X200070176Y-27489576D01*
X200060206Y-27469016D01*
X200050183Y-27448531D01*
X200040108Y-27428119D01*
X200029980Y-27407781D01*
X200019799Y-27387516D01*
X200009565Y-27367325D01*
X199999280Y-27347207D01*
X199988942Y-27327162D01*
X199978551Y-27307190D01*
X199968109Y-27287290D01*
X199957615Y-27267464D01*
X199947068Y-27247710D01*
X199936470Y-27228028D01*
X199925820Y-27208418D01*
X199915118Y-27188880D01*
X199904364Y-27169415D01*
X199893559Y-27150021D01*
X199882702Y-27130698D01*
X199871794Y-27111447D01*
X199860835Y-27092268D01*
X199849824Y-27073159D01*
X199838762Y-27054122D01*
X199827649Y-27035156D01*
X199816485Y-27016260D01*
X199805270Y-26997435D01*
X199794004Y-26978681D01*
X199782687Y-26959997D01*
X199771319Y-26941383D01*
X199759901Y-26922840D01*
X199748432Y-26904366D01*
X199736913Y-26885963D01*
X199725343Y-26867629D01*
X199713722Y-26849365D01*
X199702051Y-26831170D01*
X199690330Y-26813045D01*
X199678559Y-26794989D01*
X199666737Y-26777003D01*
X199654865Y-26759085D01*
X199642943Y-26741236D01*
X199630972Y-26723457D01*
X199618950Y-26705746D01*
X199606878Y-26688104D01*
X199594757Y-26670530D01*
X199582585Y-26653024D01*
X199570364Y-26635588D01*
X199558093Y-26618219D01*
X199545773Y-26600918D01*
X199533403Y-26583686D01*
X199520984Y-26566521D01*
X199508515Y-26549424D01*
X199495997Y-26532395D01*
X199483429Y-26515434D01*
X199470812Y-26498540D01*
X199458146Y-26481714D01*
X199445431Y-26464955D01*
X199432667Y-26448263D01*
X199419853Y-26431639D01*
X199406991Y-26415082D01*
X199394079Y-26398592D01*
X199381119Y-26382169D01*
X199368109Y-26365812D01*
X199355051Y-26349523D01*
X199341944Y-26333300D01*
X199328788Y-26317144D01*
X199315584Y-26301055D01*
X199302331Y-26285032D01*
X199289029Y-26269076D01*
X199275679Y-26253186D01*
X199262280Y-26237362D01*
X199248833Y-26221605D01*
X199235337Y-26205914D01*
X199221793Y-26190289D01*
X199208201Y-26174731D01*
X199194561Y-26159238D01*
X199180872Y-26143812D01*
X199167135Y-26128451D01*
X199153350Y-26113156D01*
X199139517Y-26097928D01*
X199125636Y-26082765D01*
X199111706Y-26067668D01*
X199097729Y-26052636D01*
X199083704Y-26037670D01*
X199069632Y-26022770D01*
X199055511Y-26007936D01*
X199041343Y-25993167D01*
X199027127Y-25978464D01*
X199012863Y-25963827D01*
X198998552Y-25949255D01*
X198984193Y-25934748D01*
X198969787Y-25920307D01*
X198955333Y-25905931D01*
X198940832Y-25891621D01*
X198926284Y-25877377D01*
X198911688Y-25863197D01*
X198897046Y-25849084D01*
X198882356Y-25835035D01*
X198867619Y-25821052D01*
X198852835Y-25807134D01*
X198838004Y-25793282D01*
X198823126Y-25779495D01*
X198808201Y-25765774D01*
X198793230Y-25752118D01*
X198778212Y-25738527D01*
X198763147Y-25725002D01*
X198748036Y-25711542D01*
X198732878Y-25698148D01*
X198717674Y-25684819D01*
X198702423Y-25671556D01*
X198687126Y-25658358D01*
X198671783Y-25645225D01*
X198656394Y-25632158D01*
X198640959Y-25619157D01*
X198625477Y-25606222D01*
X198609950Y-25593352D01*
X198594377Y-25580547D01*
X198578759Y-25567809D01*
X198563095Y-25555136D01*
X198547385Y-25542529D01*
X198531630Y-25529988D01*
X198515830Y-25517513D01*
X198499984Y-25505104D01*
X198484094Y-25492760D01*
X198468158Y-25480483D01*
X198452178Y-25468272D01*
X198436152Y-25456127D01*
X198420083Y-25444049D01*
X198403968Y-25432037D01*
X198387809Y-25420091D01*
X198371606Y-25408211D01*
X198355359Y-25396399D01*
X198339068Y-25384652D01*
X198322733Y-25372973D01*
X198306354Y-25361360D01*
X198289932Y-25349815D01*
X198273466Y-25338336D01*
X198256957Y-25326924D01*
X198240405Y-25315580D01*
X198223810Y-25304302D01*
X198207172Y-25293092D01*
X198190492Y-25281950D01*
X198173769Y-25270875D01*
X198157005Y-25259868D01*
X198140198Y-25248929D01*
X198123349Y-25238057D01*
X198106459Y-25227254D01*
X198089527Y-25216519D01*
X198072554Y-25205852D01*
X198055540Y-25195254D01*
X198038486Y-25184724D01*
X198021391Y-25174263D01*
X198004256Y-25163871D01*
X197987081Y-25153547D01*
X197969866Y-25143293D01*
X197952612Y-25133109D01*
X197935318Y-25122993D01*
X197917986Y-25112948D01*
X197900615Y-25102972D01*
X197883206Y-25093066D01*
X197865759Y-25083230D01*
X197848275Y-25073465D01*
X197830753Y-25063770D01*
X197813194Y-25054145D01*
X197795599Y-25044592D01*
X197777968Y-25035110D01*
X197760300Y-25025698D01*
X197742598Y-25016359D01*
X197724860Y-25007090D01*
X197707088Y-24997894D01*
X197689281Y-24988770D01*
X197671441Y-24979718D01*
X197653568Y-24970738D01*
X197635662Y-24961832D01*
X197617723Y-24952998D01*
X197599753Y-24944237D01*
X197581752Y-24935550D01*
X197563720Y-24926936D01*
X197545658Y-24918396D01*
X197527566Y-24909930D01*
X197509445Y-24901539D01*
X197491296Y-24893222D01*
X197473120Y-24884981D01*
X197454916Y-24876814D01*
X197436686Y-24868723D01*
X197418430Y-24860708D01*
X197400149Y-24852768D01*
X197381845Y-24844905D01*
X197363516Y-24837119D01*
X197345165Y-24829409D01*
X197326793Y-24821777D01*
X197308399Y-24814222D01*
X197289986Y-24806745D01*
X197271553Y-24799346D01*
X197253103Y-24792026D01*
X197234635Y-24784784D01*
X197216151Y-24777622D01*
X197197652Y-24770539D01*
X197179139Y-24763536D01*
X197160613Y-24756613D01*
X197142076Y-24749770D01*
X197123528Y-24743009D01*
X197104971Y-24736329D01*
X197086406Y-24729731D01*
X197067835Y-24723214D01*
X197049259Y-24716781D01*
X197030679Y-24710430D01*
X197012097Y-24704162D01*
X196993514Y-24697978D01*
X196974933Y-24691879D01*
X196956354Y-24685864D01*
X196937781Y-24679934D01*
X196919213Y-24674089D01*
X196900654Y-24668330D01*
X196882106Y-24662658D01*
X196863570Y-24657073D01*
X196845048Y-24651575D01*
X196826544Y-24646165D01*
X196808059Y-24640843D01*
X196789595Y-24635610D01*
X196771156Y-24630466D01*
X196752744Y-24625413D01*
X196734361Y-24620449D01*
X196716011Y-24615577D01*
X196697697Y-24610797D01*
X196679421Y-24606108D01*
X196661188Y-24601512D01*
X196643000Y-24597010D01*
X196624862Y-24592601D01*
X196606777Y-24588287D01*
X196588748Y-24584068D01*
X196570781Y-24579944D01*
X196552880Y-24575917D01*
X196535049Y-24571987D01*
X196517293Y-24568154D01*
X196499617Y-24564420D01*
X196482027Y-24560785D01*
X196464527Y-24557249D01*
X196447125Y-24553814D01*
X196429827Y-24550480D01*
X196412638Y-24547247D01*
X196395566Y-24544117D01*
X196378618Y-24541090D01*
X196361802Y-24538167D01*
X196345126Y-24535348D01*
X196328599Y-24532634D01*
X196312230Y-24530027D01*
X196296028Y-24527526D01*
X196280004Y-24525132D01*
X196264168Y-24522846D01*
X196248532Y-24520668D01*
X196233109Y-24518600D01*
X196217909Y-24516641D01*
X196202948Y-24514792D01*
X196188240Y-24513053D01*
X196173799Y-24511426D01*
X196159641Y-24509909D01*
X196152661Y-24509191D01*
X196145783Y-24508503D01*
X196138961Y-24507841D01*
X196132243Y-24507209D01*
X196125587Y-24506602D01*
X196119038Y-24506025D01*
X196112559Y-24505474D01*
X196106188Y-24504952D01*
X196099895Y-24504457D01*
X196093713Y-24503989D01*
X196087615Y-24503548D01*
X196081632Y-24503135D01*
X196075741Y-24502748D01*
X196069967Y-24502389D01*
X196064293Y-24502056D01*
X196058738Y-24501749D01*
X196053293Y-24501469D01*
X196047967Y-24501214D01*
X196042761Y-24500985D01*
X196037675Y-24500780D01*
X196032717Y-24500601D01*
X196027882Y-24500446D01*
X196023182Y-24500315D01*
X196018606Y-24500208D01*
X196014174Y-24500123D01*
X196009866Y-24500061D01*
X196005710Y-24500021D01*
X196001676Y-24500002D01*
X196000000Y-24500000D01*
X200000000Y-44125000D02*
X200008334Y-44114518D01*
X200016668Y-44103909D01*
X200025000Y-44093172D01*
X200033331Y-44082307D01*
X200041660Y-44071313D01*
X200049987Y-44060190D01*
X200058312Y-44048936D01*
X200066633Y-44037553D01*
X200074952Y-44026038D01*
X200083266Y-44014392D01*
X200091577Y-44002614D01*
X200099884Y-43990704D01*
X200108185Y-43978661D01*
X200116482Y-43966485D01*
X200124773Y-43954176D01*
X200133058Y-43941733D01*
X200141336Y-43929155D01*
X200149607Y-43916444D01*
X200157871Y-43903597D01*
X200166126Y-43890616D01*
X200174373Y-43877499D01*
X200182611Y-43864247D01*
X200190839Y-43850859D01*
X200199057Y-43837336D01*
X200207263Y-43823677D01*
X200215459Y-43809883D01*
X200223642Y-43795952D01*
X200231812Y-43781886D01*
X200239969Y-43767684D01*
X200248112Y-43753347D01*
X200256240Y-43738875D01*
X200264352Y-43724267D01*
X200272448Y-43709525D01*
X200280527Y-43694648D01*
X200288587Y-43679638D01*
X200296629Y-43664493D01*
X200304651Y-43649216D01*
X200312653Y-43633806D01*
X200320633Y-43618265D01*
X200328591Y-43602593D01*
X200336526Y-43586790D01*
X200344436Y-43570858D01*
X200352321Y-43554798D01*
X200360180Y-43538610D01*
X200368011Y-43522297D01*
X200375814Y-43505858D01*
X200383587Y-43489297D01*
X200391330Y-43472613D01*
X200399040Y-43455809D01*
X200406718Y-43438887D01*
X200414360Y-43421847D01*
X200421967Y-43404693D01*
X200429537Y-43387426D01*
X200437068Y-43370048D01*
X200444560Y-43352563D01*
X200452010Y-43334971D01*
X200459417Y-43317277D01*
X200466779Y-43299483D01*
X200474096Y-43281592D01*
X200481365Y-43263607D01*
X200488584Y-43245532D01*
X200495753Y-43227370D01*
X200502869Y-43209125D01*
X200509930Y-43190801D01*
X200516934Y-43172403D01*
X200523880Y-43153934D01*
X200530766Y-43135401D01*
X200537589Y-43116807D01*
X200544347Y-43098158D01*
X200551039Y-43079459D01*
X200557662Y-43060717D01*
X200564214Y-43041938D01*
X200570693Y-43023127D01*
X200577096Y-43004292D01*
X200583421Y-42985440D01*
X200589665Y-42966578D01*
X200595826Y-42947715D01*
X200601901Y-42928857D01*
X200607889Y-42910015D01*
X200613785Y-42891195D01*
X200619588Y-42872409D01*
X200625295Y-42853665D01*
X200630902Y-42834974D01*
X200636408Y-42816345D01*
X200641809Y-42797791D01*
X200647103Y-42779321D01*
X200652287Y-42760948D01*
X200657357Y-42742683D01*
X200662312Y-42724539D01*
X200667148Y-42706529D01*
X200669522Y-42697570D01*
X200671862Y-42688665D01*
X200674174Y-42679785D01*
X200676452Y-42670960D01*
X200678701Y-42662167D01*
X200680915Y-42653429D01*
X200683100Y-42644728D01*
X200685249Y-42636085D01*
X200687367Y-42627484D01*
X200689451Y-42618943D01*
X200691502Y-42610448D01*
X200693518Y-42602015D01*
X200695501Y-42593635D01*
X200697448Y-42585318D01*
X200699362Y-42577059D01*
X200701240Y-42568864D01*
X200703083Y-42560734D01*
X200704890Y-42552669D01*
X200706662Y-42544674D01*
X200708398Y-42536747D01*
X200710098Y-42528895D01*
X200711762Y-42521112D01*
X200713388Y-42513409D01*
X200714979Y-42505778D01*
X200716532Y-42498232D01*
X200718050Y-42490758D01*
X200719529Y-42483375D01*
X200720972Y-42476066D01*
X200722377Y-42468853D01*
X200723747Y-42461714D01*
X200725076Y-42454677D01*
X200726372Y-42447715D01*
X200727627Y-42440860D01*
X200728848Y-42434081D01*
X200730029Y-42427413D01*
X200731175Y-42420822D01*
X200732282Y-42414346D01*
X200733355Y-42407947D01*
X200734387Y-42401669D01*
X200735387Y-42395468D01*
X200736347Y-42389390D01*
X200737274Y-42383390D01*
X200738161Y-42377517D01*
X200739016Y-42371722D01*
X200739832Y-42366056D01*
X200740616Y-42360469D01*
X200741362Y-42355013D01*
X200742077Y-42349636D01*
X200742754Y-42344392D01*
X200743400Y-42339226D01*
X200744010Y-42334196D01*
X200744590Y-42329242D01*
X200745134Y-42324425D01*
X200745649Y-42319684D01*
X200746129Y-42315081D01*
X200746581Y-42310553D01*
X200746999Y-42306162D01*
X200747390Y-42301846D01*
X200747748Y-42297667D01*
X200748080Y-42293561D01*
X200748381Y-42289591D01*
X200748656Y-42285693D01*
X200748902Y-42281930D01*
X200749123Y-42278237D01*
X200749316Y-42274678D01*
X200749485Y-42271188D01*
X200749627Y-42267828D01*
X200749747Y-42264536D01*
X200749842Y-42261373D01*
X200749914Y-42258274D01*
X200749964Y-42255302D01*
X200749993Y-42252393D01*
X200750000Y-42250000D01*
X184000000Y-64250000D02*
X183994202Y-64235398D01*
X183988455Y-64220708D01*
X183982761Y-64205931D01*
X183977118Y-64191067D01*
X183971527Y-64176116D01*
X183965990Y-64161078D01*
X183960505Y-64145952D01*
X183955074Y-64130740D01*
X183949697Y-64115441D01*
X183944374Y-64100054D01*
X183939105Y-64084581D01*
X183933892Y-64069022D01*
X183928733Y-64053376D01*
X183923631Y-64037643D01*
X183918584Y-64021824D01*
X183913594Y-64005919D01*
X183908660Y-63989928D01*
X183903784Y-63973851D01*
X183898965Y-63957689D01*
X183894205Y-63941441D01*
X183889502Y-63925108D01*
X183884859Y-63908690D01*
X183880274Y-63892188D01*
X183875749Y-63875601D01*
X183871284Y-63858930D01*
X183866879Y-63842175D01*
X183862535Y-63825337D01*
X183858252Y-63808416D01*
X183854030Y-63791412D01*
X183849870Y-63774326D01*
X183845773Y-63757158D01*
X183841738Y-63739908D01*
X183837767Y-63722577D01*
X183833859Y-63705165D01*
X183830014Y-63687673D01*
X183826235Y-63670102D01*
X183822519Y-63652451D01*
X183818869Y-63634722D01*
X183815285Y-63616914D01*
X183811766Y-63599029D01*
X183808314Y-63581067D01*
X183804928Y-63563029D01*
X183801610Y-63544915D01*
X183798359Y-63526726D01*
X183795175Y-63508463D01*
X183792061Y-63490126D01*
X183789014Y-63471717D01*
X183786037Y-63453235D01*
X183783130Y-63434682D01*
X183780292Y-63416058D01*
X183777524Y-63397365D01*
X183774827Y-63378603D01*
X183772201Y-63359773D01*
X183769646Y-63340876D01*
X183767163Y-63321913D01*
X183764752Y-63302885D01*
X183762414Y-63283792D01*
X183760148Y-63264637D01*
X183757956Y-63245419D01*
X183755836Y-63226141D01*
X183753791Y-63206803D01*
X183751820Y-63187406D01*
X183749923Y-63167951D01*
X183748101Y-63148440D01*
X183746354Y-63128874D01*
X183744683Y-63109254D01*
X183743087Y-63089581D01*
X183741567Y-63069857D01*
X183740124Y-63050083D01*
X183738757Y-63030261D01*
X183737467Y-63010391D01*
X183736254Y-62990475D01*
X183735118Y-62970515D01*
X183734060Y-62950512D01*
X183733080Y-62930468D01*
X183732177Y-62910384D01*
X183731354Y-62890262D01*
X183730608Y-62870103D01*
X183729941Y-62849909D01*
X183729353Y-62829682D01*
X183728844Y-62809423D01*
X183728415Y-62789134D01*
X183728064Y-62768818D01*
X183727793Y-62748475D01*
X183727602Y-62728107D01*
X183727490Y-62707717D01*
X183727458Y-62687306D01*
X183727506Y-62666876D01*
X183727634Y-62646429D01*
X183727841Y-62625967D01*
X183728129Y-62605492D01*
X183728497Y-62585007D01*
X183728945Y-62564512D01*
X183729473Y-62544010D01*
X183730081Y-62523504D01*
X183730769Y-62502995D01*
X183731537Y-62482485D01*
X183732385Y-62461977D01*
X183733313Y-62441473D01*
X183734321Y-62420975D01*
X183735408Y-62400485D01*
X183736574Y-62380006D01*
X183737820Y-62359540D01*
X183739145Y-62339089D01*
X183740548Y-62318655D01*
X183742031Y-62298241D01*
X183743592Y-62277849D01*
X183745231Y-62257481D01*
X183746949Y-62237141D01*
X183748744Y-62216829D01*
X183750616Y-62196549D01*
X183752565Y-62176304D01*
X183754592Y-62156095D01*
X183756694Y-62135924D01*
X183757774Y-62125853D01*
X183758873Y-62115795D01*
X183759991Y-62105746D01*
X183761127Y-62095710D01*
X183762283Y-62085684D01*
X183763457Y-62075671D01*
X183764649Y-62065669D01*
X183765861Y-62055681D01*
X183767091Y-62045704D01*
X183768339Y-62035742D01*
X183769606Y-62025792D01*
X183770892Y-62015857D01*
X183772195Y-62005935D01*
X183773517Y-61996028D01*
X183774858Y-61986135D01*
X183776216Y-61976257D01*
X183777592Y-61966394D01*
X183778987Y-61956547D01*
X183780399Y-61946716D01*
X183781829Y-61936901D01*
X183783277Y-61927103D01*
X183784743Y-61917321D01*
X183786227Y-61907556D01*
X183787728Y-61897809D01*
X183789246Y-61888080D01*
X183790782Y-61878367D01*
X183792335Y-61868675D01*
X183793906Y-61858999D01*
X183795494Y-61849344D01*
X183797099Y-61839707D01*
X183798720Y-61830091D01*
X183800359Y-61820492D01*
X183802015Y-61810916D01*
X183803687Y-61801358D01*
X183805376Y-61791823D01*
X183807082Y-61782307D01*
X183808804Y-61772814D01*
X183810543Y-61763340D01*
X183812297Y-61753891D01*
X183814069Y-61744461D01*
X183815856Y-61735057D01*
X183817659Y-61725672D01*
X183819478Y-61716314D01*
X183821314Y-61706975D01*
X183823164Y-61697663D01*
X183825031Y-61688371D01*
X183826912Y-61679108D01*
X183828810Y-61669865D01*
X183830723Y-61660650D01*
X183832651Y-61651457D01*
X183834594Y-61642293D01*
X183836553Y-61633149D01*
X183838525Y-61624037D01*
X183840514Y-61614945D01*
X183842516Y-61605885D01*
X183844534Y-61596846D01*
X183846565Y-61587839D01*
X183848612Y-61578854D01*
X183850672Y-61569902D01*
X183852748Y-61560971D01*
X183854836Y-61552074D01*
X183856939Y-61543199D01*
X183859055Y-61534359D01*
X183861186Y-61525541D01*
X183863330Y-61516758D01*
X183865488Y-61507998D01*
X183867658Y-61499273D01*
X183869843Y-61490572D01*
X183872039Y-61481907D01*
X183874251Y-61473264D01*
X183876473Y-61464660D01*
X183878710Y-61456078D01*
X183880958Y-61447534D01*
X183883220Y-61439014D01*
X183885493Y-61430532D01*
X183887780Y-61422074D01*
X183890078Y-61413656D01*
X183892389Y-61405260D01*
X183894710Y-61396905D01*
X183897046Y-61388574D01*
X183899391Y-61380284D01*
X183901749Y-61372017D01*
X183904117Y-61363792D01*
X183906499Y-61355591D01*
X183908889Y-61347432D01*
X183911293Y-61339297D01*
X183913706Y-61331205D01*
X183916132Y-61323137D01*
X183918566Y-61315112D01*
X183921013Y-61307112D01*
X183923468Y-61299156D01*
X183925936Y-61291224D01*
X183928412Y-61283336D01*
X183930900Y-61275473D01*
X183933396Y-61267655D01*
X183935904Y-61259862D01*
X183938419Y-61252114D01*
X183940947Y-61244391D01*
X183943481Y-61236714D01*
X183946028Y-61229062D01*
X183948581Y-61221455D01*
X183951146Y-61213875D01*
X183953717Y-61206340D01*
X183956300Y-61198831D01*
X183958888Y-61191369D01*
X183961488Y-61183933D01*
X183964094Y-61176544D01*
X183966711Y-61169180D01*
X183969333Y-61161864D01*
X183971966Y-61154574D01*
X183974604Y-61147331D01*
X183977254Y-61140115D01*
X183979907Y-61132947D01*
X183982572Y-61125805D01*
X183985240Y-61118711D01*
X183987920Y-61111643D01*
X183990602Y-61104624D01*
X183993296Y-61097631D01*
X183995993Y-61090687D01*
X183998701Y-61083770D01*
X184001412Y-61076901D01*
X184004133Y-61070059D01*
X184006856Y-61063266D01*
X184009590Y-61056500D01*
X184012326Y-61049783D01*
X184015073Y-61043093D01*
X184017821Y-61036453D01*
X184020579Y-61029839D01*
X184023339Y-61023274D01*
X184026109Y-61016737D01*
X184028880Y-61010249D01*
X184031661Y-61003788D01*
X184034442Y-60997378D01*
X184037233Y-60990993D01*
X184040025Y-60984659D01*
X184042826Y-60978352D01*
X184045628Y-60972095D01*
X184048439Y-60965865D01*
X184051249Y-60959685D01*
X184054069Y-60953531D01*
X184056888Y-60947428D01*
X184059717Y-60941352D01*
X184062545Y-60935326D01*
X184065382Y-60929328D01*
X184068217Y-60923379D01*
X184071062Y-60917457D01*
X184073905Y-60911585D01*
X184076757Y-60905741D01*
X184079607Y-60899946D01*
X184082466Y-60894178D01*
X184085323Y-60888461D01*
X184088188Y-60882770D01*
X184091051Y-60877129D01*
X184093922Y-60871516D01*
X184096791Y-60865952D01*
X184099668Y-60860415D01*
X184102542Y-60854928D01*
X184105424Y-60849468D01*
X184108303Y-60844057D01*
X184111190Y-60838673D01*
X184114074Y-60833339D01*
X184116965Y-60828032D01*
X184119853Y-60822774D01*
X184122749Y-60817543D01*
X184125640Y-60812361D01*
X184128539Y-60807206D01*
X184131434Y-60802100D01*
X184134337Y-60797021D01*
X184137234Y-60791990D01*
X184140140Y-60786986D01*
X184143040Y-60782031D01*
X184145948Y-60777103D01*
X184148851Y-60772222D01*
X184151761Y-60767369D01*
X184154666Y-60762563D01*
X184157578Y-60757785D01*
X184160485Y-60753054D01*
X184163398Y-60748349D01*
X184166306Y-60743692D01*
X184169221Y-60739062D01*
X184172129Y-60734479D01*
X184175045Y-60729922D01*
X184177954Y-60725413D01*
X184180870Y-60720929D01*
X184183780Y-60716493D01*
X184186696Y-60712083D01*
X184189606Y-60707719D01*
X184192522Y-60703381D01*
X184195432Y-60699090D01*
X184198348Y-60694824D01*
X184201257Y-60690605D01*
X184204172Y-60686411D01*
X184207080Y-60682263D01*
X184209995Y-60678141D01*
X184212901Y-60674064D01*
X184215815Y-60670013D01*
X184218720Y-60666006D01*
X184221632Y-60662026D01*
X184224536Y-60658089D01*
X184227446Y-60654179D01*
X184230348Y-60650313D01*
X184233256Y-60646472D01*
X184236156Y-60642674D01*
X184239062Y-60638903D01*
X184241960Y-60635174D01*
X184244863Y-60631471D01*
X184250000Y-60625000D01*
X185500000Y-66750000D02*
X185482520Y-66728086D01*
X185465060Y-66706070D01*
X185447622Y-66683952D01*
X185430205Y-66661733D01*
X185412810Y-66639413D01*
X185395437Y-66616991D01*
X185378087Y-66594469D01*
X185360761Y-66571847D01*
X185343458Y-66549125D01*
X185326180Y-66526303D01*
X185308926Y-66503382D01*
X185291698Y-66480362D01*
X185274496Y-66457244D01*
X185257320Y-66434028D01*
X185240171Y-66410714D01*
X185223049Y-66387303D01*
X185205956Y-66363796D01*
X185188891Y-66340192D01*
X185171856Y-66316494D01*
X185154851Y-66292700D01*
X185137876Y-66268813D01*
X185120932Y-66244831D01*
X185104020Y-66220757D01*
X185087141Y-66196591D01*
X185070295Y-66172333D01*
X185053483Y-66147985D01*
X185036706Y-66123547D01*
X185019964Y-66099020D01*
X185003259Y-66074404D01*
X184986590Y-66049702D01*
X184969960Y-66024914D01*
X184953368Y-66000040D01*
X184936815Y-65975082D01*
X184920303Y-65950041D01*
X184903832Y-65924919D01*
X184887404Y-65899715D01*
X184871018Y-65874433D01*
X184854677Y-65849072D01*
X184838381Y-65823635D01*
X184822132Y-65798122D01*
X184805929Y-65772536D01*
X184789775Y-65746877D01*
X184773670Y-65721148D01*
X184757617Y-65695350D01*
X184741615Y-65669486D01*
X184725666Y-65643556D01*
X184709771Y-65617562D01*
X184693932Y-65591508D01*
X184678150Y-65565395D01*
X184662427Y-65539225D01*
X184646764Y-65513000D01*
X184631162Y-65486724D01*
X184615623Y-65460398D01*
X184600148Y-65434026D01*
X184584740Y-65407610D01*
X184569400Y-65381153D01*
X184554130Y-65354658D01*
X184538931Y-65328129D01*
X184523806Y-65301569D01*
X184508757Y-65274982D01*
X184493785Y-65248371D01*
X184478893Y-65221740D01*
X184464083Y-65195094D01*
X184449357Y-65168437D01*
X184434719Y-65141774D01*
X184420170Y-65115110D01*
X184405714Y-65088450D01*
X184391352Y-65061800D01*
X184377089Y-65035165D01*
X184362927Y-65008552D01*
X184348870Y-64981968D01*
X184334920Y-64955419D01*
X184321082Y-64928912D01*
X184307360Y-64902457D01*
X184293758Y-64876062D01*
X184280279Y-64849735D01*
X184266929Y-64823487D01*
X184253713Y-64797329D01*
X184240635Y-64771271D01*
X184227703Y-64745326D01*
X184214920Y-64719507D01*
X184202295Y-64693829D01*
X184189834Y-64668308D01*
X184177545Y-64642960D01*
X184165436Y-64617805D01*
X184153516Y-64592864D01*
X184141796Y-64568159D01*
X184130286Y-64543717D01*
X184118999Y-64519567D01*
X184107949Y-64495740D01*
X184097151Y-64472274D01*
X184086623Y-64449211D01*
X184076387Y-64426602D01*
X184066464Y-64404502D01*
X184056886Y-64382982D01*
X184047685Y-64362126D01*
X184038904Y-64342039D01*
X184030598Y-64322853D01*
X184022839Y-64304748D01*
X184015727Y-64287976D01*
X184009418Y-64272923D01*
X184004178Y-64260261D01*
X184000610Y-64251514D01*
X184000000Y-64250000D01*
X186750000Y-70000000D02*
X186749960Y-69985295D01*
X186749840Y-69970518D01*
X186749640Y-69955669D01*
X186749358Y-69940748D01*
X186748996Y-69925753D01*
X186748551Y-69910686D01*
X186748025Y-69895544D01*
X186747416Y-69880329D01*
X186746724Y-69865040D01*
X186745949Y-69849676D01*
X186745090Y-69834237D01*
X186744147Y-69818723D01*
X186743119Y-69803133D01*
X186742006Y-69787467D01*
X186740808Y-69771726D01*
X186739524Y-69755907D01*
X186738153Y-69740012D01*
X186736696Y-69724040D01*
X186735151Y-69707991D01*
X186733519Y-69691863D01*
X186731798Y-69675658D01*
X186729989Y-69659374D01*
X186728091Y-69643012D01*
X186726103Y-69626570D01*
X186724025Y-69610050D01*
X186721857Y-69593450D01*
X186719598Y-69576770D01*
X186717247Y-69560010D01*
X186714804Y-69543170D01*
X186712269Y-69526249D01*
X186709641Y-69509247D01*
X186706920Y-69492164D01*
X186704105Y-69475000D01*
X186701196Y-69457755D01*
X186698191Y-69440427D01*
X186695092Y-69423017D01*
X186691897Y-69405525D01*
X186688605Y-69387951D01*
X186685217Y-69370293D01*
X186681732Y-69352553D01*
X186678149Y-69334730D01*
X186674468Y-69316823D01*
X186670688Y-69298832D01*
X186666809Y-69280758D01*
X186662830Y-69262600D01*
X186658751Y-69244357D01*
X186654572Y-69226031D01*
X186650291Y-69207619D01*
X186645909Y-69189124D01*
X186641424Y-69170543D01*
X186636837Y-69151878D01*
X186632147Y-69133127D01*
X186627354Y-69114292D01*
X186622456Y-69095371D01*
X186617454Y-69076365D01*
X186612347Y-69057274D01*
X186607134Y-69038097D01*
X186601816Y-69018835D01*
X186596391Y-68999487D01*
X186590859Y-68980053D01*
X186585220Y-68960534D01*
X186579473Y-68940929D01*
X186573618Y-68921238D01*
X186567654Y-68901462D01*
X186561581Y-68881600D01*
X186555399Y-68861653D01*
X186549106Y-68841620D01*
X186542703Y-68821501D01*
X186536189Y-68801298D01*
X186529564Y-68781009D01*
X186522828Y-68760635D01*
X186515979Y-68740175D01*
X186509017Y-68719631D01*
X186501943Y-68699003D01*
X186494756Y-68678290D01*
X186487455Y-68657492D01*
X186480040Y-68636611D01*
X186472510Y-68615646D01*
X186464866Y-68594598D01*
X186457107Y-68573466D01*
X186449233Y-68552252D01*
X186441243Y-68530955D01*
X186433137Y-68509576D01*
X186424915Y-68488115D01*
X186416577Y-68466573D01*
X186408122Y-68444951D01*
X186399550Y-68423248D01*
X186390861Y-68401466D01*
X186382055Y-68379604D01*
X186373131Y-68357664D01*
X186364089Y-68335646D01*
X186354930Y-68313551D01*
X186345653Y-68291380D01*
X186336258Y-68269133D01*
X186326745Y-68246811D01*
X186317114Y-68224415D01*
X186307364Y-68201945D01*
X186297497Y-68179404D01*
X186287512Y-68156792D01*
X186277409Y-68134109D01*
X186267188Y-68111358D01*
X186256849Y-68088539D01*
X186246393Y-68065653D01*
X186235820Y-68042703D01*
X186225130Y-68019688D01*
X186214323Y-67996611D01*
X186203400Y-67973473D01*
X186192361Y-67950276D01*
X186181207Y-67927022D01*
X186169938Y-67903711D01*
X186158554Y-67880347D01*
X186147057Y-67856931D01*
X186135448Y-67833466D01*
X186123726Y-67809953D01*
X186111893Y-67786394D01*
X186099949Y-67762793D01*
X186087897Y-67739152D01*
X186075736Y-67715473D01*
X186063468Y-67691760D01*
X186051095Y-67668015D01*
X186038618Y-67644242D01*
X186026038Y-67620444D01*
X186013357Y-67596625D01*
X186000577Y-67572789D01*
X185987701Y-67548939D01*
X185974729Y-67525080D01*
X185961665Y-67501216D01*
X185948511Y-67477353D01*
X185935269Y-67453495D01*
X185921944Y-67429648D01*
X185908537Y-67405818D01*
X185895052Y-67382011D01*
X185881494Y-67358233D01*
X185867865Y-67334492D01*
X185854172Y-67310795D01*
X185840417Y-67287151D01*
X185826607Y-67263569D01*
X185812748Y-67240057D01*
X185798845Y-67216626D01*
X185784906Y-67193288D01*
X185770938Y-67170054D01*
X185756948Y-67146938D01*
X185742948Y-67123953D01*
X185728945Y-67101117D01*
X185714952Y-67078445D01*
X185700982Y-67055958D01*
X185687047Y-67033676D01*
X185673164Y-67011624D01*
X185659352Y-66989829D01*
X185645629Y-66968320D01*
X185632020Y-66947132D01*
X185618551Y-66926306D01*
X185605256Y-66905888D01*
X185592171Y-66885933D01*
X185579342Y-66866507D01*
X185566827Y-66847692D01*
X185554695Y-66829587D01*
X185543039Y-66812325D01*
X185531986Y-66796084D01*
X185521715Y-66781118D01*
X185512515Y-66767828D01*
X185504912Y-66756951D01*
X185500000Y-66750000D01*
X188500000Y-82250000D02*
X188488101Y-82245123D01*
X188476242Y-82240176D01*
X188464421Y-82235158D01*
X188452639Y-82230070D01*
X188440895Y-82224912D01*
X188429189Y-82219683D01*
X188417521Y-82214383D01*
X188405891Y-82209013D01*
X188394299Y-82203573D01*
X188382743Y-82198061D01*
X188371226Y-82192479D01*
X188359745Y-82186826D01*
X188348300Y-82181102D01*
X188336893Y-82175308D01*
X188325522Y-82169442D01*
X188314187Y-82163505D01*
X188302888Y-82157496D01*
X188291625Y-82151417D01*
X188280398Y-82145265D01*
X188269207Y-82139043D01*
X188258051Y-82132748D01*
X188246930Y-82126382D01*
X188235844Y-82119944D01*
X188224793Y-82113433D01*
X188213777Y-82106851D01*
X188202796Y-82100196D01*
X188191849Y-82093469D01*
X188180937Y-82086669D01*
X188170058Y-82079796D01*
X188159214Y-82072850D01*
X188148404Y-82065831D01*
X188137628Y-82058739D01*
X188126885Y-82051574D01*
X188116176Y-82044335D01*
X188105500Y-82037022D01*
X188094858Y-82029635D01*
X188084249Y-82022174D01*
X188073673Y-82014639D01*
X188063130Y-82007029D01*
X188052620Y-81999344D01*
X188042143Y-81991584D01*
X188031699Y-81983750D01*
X188021287Y-81975839D01*
X188010908Y-81967854D01*
X188000561Y-81959792D01*
X187990247Y-81951655D01*
X187979965Y-81943441D01*
X187969716Y-81935151D01*
X187959498Y-81926784D01*
X187949313Y-81918340D01*
X187939160Y-81909819D01*
X187929038Y-81901221D01*
X187918949Y-81892545D01*
X187908892Y-81883791D01*
X187898866Y-81874959D01*
X187888872Y-81866048D01*
X187878910Y-81857059D01*
X187868980Y-81847991D01*
X187859081Y-81838843D01*
X187849215Y-81829616D01*
X187839379Y-81820310D01*
X187829576Y-81810923D01*
X187819804Y-81801456D01*
X187810063Y-81791909D01*
X187800355Y-81782280D01*
X187790677Y-81772571D01*
X187781032Y-81762780D01*
X187771418Y-81752907D01*
X187761836Y-81742952D01*
X187752285Y-81732915D01*
X187742766Y-81722795D01*
X187733278Y-81712593D01*
X187723822Y-81702307D01*
X187714398Y-81691937D01*
X187705006Y-81681484D01*
X187695645Y-81670947D01*
X187686316Y-81660325D01*
X187677020Y-81649618D01*
X187667754Y-81638826D01*
X187658521Y-81627949D01*
X187649320Y-81616987D01*
X187640151Y-81605938D01*
X187631014Y-81594803D01*
X187621909Y-81583581D01*
X187612837Y-81572272D01*
X187603797Y-81560876D01*
X187594789Y-81549392D01*
X187585814Y-81537820D01*
X187576871Y-81526160D01*
X187567961Y-81514412D01*
X187559084Y-81502574D01*
X187550239Y-81490647D01*
X187541428Y-81478631D01*
X187532650Y-81466525D01*
X187523904Y-81454328D01*
X187515193Y-81442041D01*
X187506514Y-81429663D01*
X187497869Y-81417193D01*
X187489258Y-81404632D01*
X187480681Y-81391980D01*
X187472137Y-81379235D01*
X187463628Y-81366397D01*
X187455153Y-81353467D01*
X187446712Y-81340443D01*
X187438306Y-81327326D01*
X187429934Y-81314115D01*
X187421598Y-81300810D01*
X187413296Y-81287410D01*
X187405030Y-81273916D01*
X187396798Y-81260326D01*
X187388603Y-81246641D01*
X187380443Y-81232861D01*
X187372319Y-81218984D01*
X187364231Y-81205011D01*
X187356179Y-81190941D01*
X187348164Y-81176775D01*
X187340186Y-81162511D01*
X187332244Y-81148150D01*
X187324340Y-81133690D01*
X187316473Y-81119133D01*
X187308643Y-81104477D01*
X187300851Y-81089723D01*
X187293098Y-81074870D01*
X187285382Y-81059917D01*
X187277705Y-81044865D01*
X187270067Y-81029713D01*
X187262467Y-81014461D01*
X187254907Y-80999109D01*
X187247386Y-80983657D01*
X187239905Y-80968103D01*
X187232464Y-80952449D01*
X187225063Y-80936694D01*
X187217703Y-80920837D01*
X187210383Y-80904879D01*
X187203105Y-80888818D01*
X187195868Y-80872656D01*
X187188672Y-80856392D01*
X187181518Y-80840025D01*
X187174407Y-80823556D01*
X187167338Y-80806984D01*
X187160312Y-80790309D01*
X187153330Y-80773531D01*
X187146390Y-80756650D01*
X187139495Y-80739666D01*
X187132644Y-80722579D01*
X187125837Y-80705388D01*
X187119074Y-80688094D01*
X187112357Y-80670696D01*
X187105686Y-80653194D01*
X187099060Y-80635589D01*
X187092480Y-80617881D01*
X187085947Y-80600068D01*
X187079461Y-80582152D01*
X187073022Y-80564132D01*
X187066631Y-80546009D01*
X187060288Y-80527782D01*
X187053993Y-80509452D01*
X187047747Y-80491018D01*
X187041550Y-80472482D01*
X187035402Y-80453842D01*
X187029305Y-80435099D01*
X187023258Y-80416254D01*
X187017261Y-80397306D01*
X187011316Y-80378255D01*
X187005423Y-80359103D01*
X186999581Y-80339849D01*
X186993792Y-80320494D01*
X186988056Y-80301038D01*
X186982374Y-80281481D01*
X186976745Y-80261824D01*
X186971170Y-80242067D01*
X186965650Y-80222211D01*
X186960185Y-80202257D01*
X186954776Y-80182204D01*
X186949423Y-80162054D01*
X186944127Y-80141806D01*
X186938888Y-80121463D01*
X186933706Y-80101024D01*
X186928582Y-80080491D01*
X186923517Y-80059864D01*
X186918511Y-80039144D01*
X186913565Y-80018332D01*
X186908679Y-79997429D01*
X186903853Y-79976437D01*
X186899089Y-79955356D01*
X186894386Y-79934188D01*
X186889746Y-79912933D01*
X186885168Y-79891594D01*
X186880654Y-79870172D01*
X186876204Y-79848668D01*
X186871819Y-79827084D01*
X186867498Y-79805422D01*
X186863244Y-79783684D01*
X186859055Y-79761871D01*
X186854934Y-79739986D01*
X186850880Y-79718031D01*
X186846895Y-79696009D01*
X186842978Y-79673921D01*
X186839130Y-79651770D01*
X186835353Y-79629559D01*
X186831646Y-79607292D01*
X186828011Y-79584971D01*
X186824447Y-79562600D01*
X186820957Y-79540182D01*
X186817540Y-79517721D01*
X186814197Y-79495220D01*
X186810929Y-79472686D01*
X186807736Y-79450121D01*
X186804619Y-79427531D01*
X186801580Y-79404921D01*
X186798618Y-79382296D01*
X186795735Y-79359663D01*
X186792931Y-79337028D01*
X186790207Y-79314398D01*
X186787564Y-79291780D01*
X186785003Y-79269183D01*
X186782524Y-79246614D01*
X186780128Y-79224083D01*
X186777817Y-79201600D01*
X186775591Y-79179176D01*
X186773450Y-79156823D01*
X186771396Y-79134554D01*
X186769430Y-79112384D01*
X186767552Y-79090327D01*
X186765764Y-79068401D01*
X186764067Y-79046626D01*
X186762460Y-79025022D01*
X186760947Y-79003614D01*
X186759526Y-78982428D01*
X186758200Y-78961496D01*
X186756970Y-78940852D01*
X186755836Y-78920537D01*
X186754800Y-78900599D01*
X186753862Y-78881094D01*
X186753025Y-78862090D01*
X186752288Y-78843670D01*
X186751653Y-78825940D01*
X186751120Y-78809038D01*
X186750692Y-78793151D01*
X186750368Y-78778555D01*
X186750148Y-78765690D01*
X186750029Y-78755396D01*
X186750000Y-78750000D01*
X198500000Y-101750000D02*
X198509815Y-101740128D01*
X198519594Y-101730180D01*
X198529337Y-101720155D01*
X198539043Y-101710052D01*
X198548712Y-101699873D01*
X198558346Y-101689615D01*
X198567943Y-101679280D01*
X198577503Y-101668867D01*
X198587027Y-101658375D01*
X198596514Y-101647805D01*
X198605965Y-101637156D01*
X198615379Y-101626428D01*
X198624757Y-101615621D01*
X198634098Y-101604734D01*
X198643402Y-101593767D01*
X198652670Y-101582720D01*
X198661900Y-101571593D01*
X198671094Y-101560385D01*
X198680251Y-101549096D01*
X198689371Y-101537727D01*
X198698453Y-101526276D01*
X198707499Y-101514743D01*
X198716507Y-101503128D01*
X198725478Y-101491432D01*
X198734412Y-101479652D01*
X198743308Y-101467791D01*
X198752166Y-101455846D01*
X198760987Y-101443818D01*
X198769770Y-101431707D01*
X198778515Y-101419512D01*
X198787222Y-101407233D01*
X198795891Y-101394870D01*
X198804521Y-101382423D01*
X198813113Y-101369891D01*
X198821667Y-101357274D01*
X198830182Y-101344571D01*
X198838658Y-101331784D01*
X198847095Y-101318910D01*
X198855493Y-101305951D01*
X198863851Y-101292905D01*
X198872171Y-101279773D01*
X198880450Y-101266555D01*
X198888690Y-101253249D01*
X198896891Y-101239856D01*
X198905051Y-101226376D01*
X198913170Y-101212809D01*
X198921250Y-101199153D01*
X198929289Y-101185410D01*
X198937286Y-101171578D01*
X198945243Y-101157657D01*
X198953159Y-101143648D01*
X198961033Y-101129550D01*
X198968866Y-101115363D01*
X198976657Y-101101087D01*
X198984406Y-101086721D01*
X198992112Y-101072265D01*
X198999776Y-101057720D01*
X199007398Y-101043084D01*
X199014976Y-101028359D01*
X199022511Y-101013542D01*
X199030003Y-100998636D01*
X199037451Y-100983638D01*
X199044855Y-100968550D01*
X199052215Y-100953371D01*
X199059531Y-100938100D01*
X199066801Y-100922738D01*
X199074027Y-100907285D01*
X199081208Y-100891741D01*
X199088343Y-100876105D01*
X199095432Y-100860377D01*
X199102475Y-100844557D01*
X199109472Y-100828646D01*
X199116421Y-100812643D01*
X199123324Y-100796548D01*
X199130180Y-100780361D01*
X199136988Y-100764082D01*
X199143748Y-100747711D01*
X199150460Y-100731248D01*
X199157123Y-100714693D01*
X199163737Y-100698046D01*
X199170302Y-100681307D01*
X199176817Y-100664477D01*
X199183283Y-100647555D01*
X199189698Y-100630541D01*
X199196062Y-100613436D01*
X199202376Y-100596239D01*
X199208638Y-100578951D01*
X199214848Y-100561572D01*
X199221006Y-100544102D01*
X199227112Y-100526542D01*
X199233165Y-100508891D01*
X199239164Y-100491150D01*
X199245110Y-100473319D01*
X199251002Y-100455399D01*
X199256839Y-100437390D01*
X199262621Y-100419291D01*
X199268348Y-100401105D01*
X199274019Y-100382830D01*
X199279634Y-100364468D01*
X199285193Y-100346018D01*
X199290694Y-100327483D01*
X199296138Y-100308861D01*
X199301523Y-100290154D01*
X199306851Y-100271362D01*
X199312119Y-100252487D01*
X199317329Y-100233528D01*
X199322478Y-100214486D01*
X199327567Y-100195364D01*
X199332595Y-100176160D01*
X199337562Y-100156876D01*
X199342467Y-100137514D01*
X199347310Y-100118074D01*
X199352090Y-100098558D01*
X199356807Y-100078965D01*
X199361459Y-100059299D01*
X199366048Y-100039560D01*
X199370571Y-100019750D01*
X199375029Y-99999869D01*
X199379421Y-99979920D01*
X199383746Y-99959905D01*
X199388004Y-99939825D01*
X199392195Y-99919681D01*
X199396317Y-99899477D01*
X199400370Y-99879213D01*
X199404353Y-99858893D01*
X199408267Y-99838518D01*
X199412109Y-99818092D01*
X199415880Y-99797616D01*
X199419580Y-99777094D01*
X199423206Y-99756529D01*
X199426759Y-99735923D01*
X199430239Y-99715280D01*
X199433643Y-99694604D01*
X199436973Y-99673899D01*
X199440226Y-99653168D01*
X199443403Y-99632416D01*
X199446502Y-99611647D01*
X199449523Y-99590867D01*
X199452465Y-99570081D01*
X199455328Y-99549294D01*
X199458110Y-99528512D01*
X199460811Y-99507742D01*
X199463430Y-99486991D01*
X199465967Y-99466267D01*
X199468420Y-99445576D01*
X199470789Y-99424930D01*
X199473072Y-99404336D01*
X199475270Y-99383805D01*
X199477381Y-99363349D01*
X199479404Y-99342980D01*
X199481339Y-99322711D01*
X199483184Y-99302557D01*
X199484938Y-99282536D01*
X199486602Y-99262664D01*
X199488173Y-99242963D01*
X199489650Y-99223456D01*
X199491034Y-99204168D01*
X199492322Y-99185130D01*
X199493514Y-99166375D01*
X199494609Y-99147942D01*
X199495605Y-99129879D01*
X199496502Y-99112241D01*
X199497298Y-99095095D01*
X199497993Y-99078526D01*
X199498585Y-99062640D01*
X199499073Y-99047579D01*
X199499458Y-99033544D01*
X199499738Y-99020835D01*
X199499915Y-99009966D01*
X199499992Y-99002041D01*
X199500000Y-99000000D01*
X199500000Y-90000000D02*
X199499960Y-89985770D01*
X199499840Y-89971510D01*
X199499640Y-89957219D01*
X199499360Y-89942898D01*
X199498999Y-89928546D01*
X199498557Y-89914164D01*
X199498034Y-89899750D01*
X199497430Y-89885305D01*
X199496745Y-89870829D01*
X199495979Y-89856320D01*
X199495131Y-89841780D01*
X199494200Y-89827207D01*
X199493188Y-89812602D01*
X199492093Y-89797964D01*
X199490916Y-89783293D01*
X199489656Y-89768590D01*
X199488313Y-89753852D01*
X199486886Y-89739082D01*
X199485376Y-89724277D01*
X199483782Y-89709439D01*
X199482104Y-89694566D01*
X199480342Y-89679659D01*
X199478495Y-89664717D01*
X199476564Y-89649740D01*
X199474547Y-89634729D01*
X199472445Y-89619682D01*
X199470257Y-89604599D01*
X199467983Y-89589481D01*
X199465623Y-89574327D01*
X199463177Y-89559137D01*
X199460644Y-89543910D01*
X199458023Y-89528647D01*
X199455316Y-89513347D01*
X199452520Y-89498010D01*
X199449637Y-89482636D01*
X199446665Y-89467225D01*
X199443605Y-89451776D01*
X199440456Y-89436289D01*
X199437217Y-89420764D01*
X199433889Y-89405201D01*
X199430471Y-89389600D01*
X199426963Y-89373960D01*
X199423364Y-89358281D01*
X199419674Y-89342564D01*
X199415893Y-89326807D01*
X199412020Y-89311011D01*
X199408055Y-89295176D01*
X199403998Y-89279300D01*
X199399848Y-89263385D01*
X199395606Y-89247430D01*
X199391270Y-89231434D01*
X199386840Y-89215398D01*
X199382316Y-89199321D01*
X199377697Y-89183204D01*
X199372984Y-89167045D01*
X199368175Y-89150845D01*
X199363271Y-89134604D01*
X199358270Y-89118321D01*
X199353174Y-89101997D01*
X199347980Y-89085631D01*
X199342690Y-89069223D01*
X199337302Y-89052772D01*
X199331815Y-89036279D01*
X199326231Y-89019744D01*
X199320548Y-89003166D01*
X199314765Y-88986545D01*
X199308883Y-88969881D01*
X199302902Y-88953174D01*
X199296819Y-88936424D01*
X199290636Y-88919630D01*
X199284352Y-88902793D01*
X199277966Y-88885911D01*
X199271478Y-88868986D01*
X199264888Y-88852017D01*
X199258195Y-88835004D01*
X199251399Y-88817947D01*
X199244499Y-88800845D01*
X199237494Y-88783698D01*
X199230386Y-88766507D01*
X199223172Y-88749271D01*
X199215853Y-88731990D01*
X199208428Y-88714664D01*
X199200896Y-88697293D01*
X199193259Y-88679877D01*
X199185513Y-88662415D01*
X199177661Y-88644908D01*
X199169700Y-88627355D01*
X199161631Y-88609757D01*
X199153453Y-88592113D01*
X199145166Y-88574423D01*
X199136769Y-88556687D01*
X199128262Y-88538904D01*
X199119645Y-88521076D01*
X199110916Y-88503202D01*
X199102076Y-88485281D01*
X199093123Y-88467314D01*
X199084059Y-88449300D01*
X199074882Y-88431240D01*
X199065591Y-88413134D01*
X199056187Y-88394981D01*
X199046669Y-88376781D01*
X199037036Y-88358535D01*
X199027288Y-88340241D01*
X199017425Y-88321901D01*
X199007446Y-88303515D01*
X198997350Y-88285081D01*
X198987138Y-88266600D01*
X198976809Y-88248073D01*
X198966362Y-88229499D01*
X198955798Y-88210878D01*
X198945114Y-88192210D01*
X198934312Y-88173495D01*
X198923391Y-88154733D01*
X198912350Y-88135924D01*
X198901189Y-88117068D01*
X198889908Y-88098166D01*
X198878505Y-88079216D01*
X198866982Y-88060220D01*
X198855336Y-88041178D01*
X198843569Y-88022088D01*
X198831679Y-88002952D01*
X198819666Y-87983769D01*
X198807529Y-87964540D01*
X198795269Y-87945264D01*
X198782885Y-87925942D01*
X198770377Y-87906574D01*
X198757744Y-87887160D01*
X198744985Y-87867699D01*
X198732101Y-87848193D01*
X198719091Y-87828641D01*
X198705955Y-87809043D01*
X198692692Y-87789400D01*
X198679303Y-87769711D01*
X198665786Y-87749977D01*
X198652141Y-87730198D01*
X198638369Y-87710374D01*
X198624468Y-87690505D01*
X198610439Y-87670592D01*
X198596281Y-87650634D01*
X198581994Y-87630633D01*
X198567578Y-87610587D01*
X198553032Y-87590498D01*
X198538356Y-87570366D01*
X198523549Y-87550190D01*
X198508613Y-87529971D01*
X198493546Y-87509710D01*
X198478348Y-87489407D01*
X198463019Y-87469062D01*
X198447559Y-87448675D01*
X198431968Y-87428247D01*
X198416245Y-87407778D01*
X198400390Y-87387268D01*
X198384404Y-87366718D01*
X198368285Y-87346129D01*
X198352035Y-87325500D01*
X198335652Y-87304832D01*
X198319137Y-87284126D01*
X198302490Y-87263381D01*
X198285711Y-87242599D01*
X198268799Y-87221781D01*
X198251755Y-87200925D01*
X198234579Y-87180034D01*
X198217270Y-87159108D01*
X198199830Y-87138146D01*
X198182257Y-87117151D01*
X198164553Y-87096122D01*
X198146716Y-87075060D01*
X198128748Y-87053966D01*
X198110649Y-87032841D01*
X198092418Y-87011685D01*
X198074057Y-86990499D01*
X198055565Y-86969284D01*
X198036943Y-86948041D01*
X198018190Y-86926770D01*
X197999309Y-86905472D01*
X197980298Y-86884150D01*
X197961159Y-86862802D01*
X197941891Y-86841431D01*
X197922496Y-86820037D01*
X197902975Y-86798622D01*
X197883327Y-86777187D01*
X197863553Y-86755732D01*
X197843655Y-86734259D01*
X197823633Y-86712770D01*
X197803487Y-86691265D01*
X197783220Y-86669746D01*
X197762832Y-86648214D01*
X197742323Y-86626672D01*
X197721696Y-86605120D01*
X197700951Y-86583559D01*
X197680089Y-86561993D01*
X197659113Y-86540422D01*
X197638023Y-86518848D01*
X197616822Y-86497273D01*
X197595510Y-86475700D01*
X197574089Y-86454129D01*
X197552562Y-86432564D01*
X197530931Y-86411006D01*
X197509197Y-86389459D01*
X197487363Y-86367923D01*
X197465430Y-86346403D01*
X197443403Y-86324900D01*
X197421283Y-86303418D01*
X197399074Y-86281959D01*
X197376777Y-86260526D01*
X197354398Y-86239123D01*
X197331938Y-86217754D01*
X197309403Y-86196421D01*
X197286795Y-86175129D01*
X197264119Y-86153881D01*
X197241379Y-86132682D01*
X197218581Y-86111536D01*
X197195728Y-86090448D01*
X197172828Y-86069423D01*
X197149885Y-86048467D01*
X197126905Y-86027584D01*
X197103896Y-86006780D01*
X197080865Y-85986063D01*
X197057820Y-85965439D01*
X197034768Y-85944915D01*
X197011719Y-85924499D01*
X196988683Y-85904199D01*
X196965670Y-85884024D01*
X196942691Y-85863985D01*
X196919761Y-85844090D01*
X196896891Y-85824353D01*
X196874098Y-85804784D01*
X196851397Y-85785399D01*
X196828808Y-85766211D01*
X196806351Y-85747237D01*
X196784048Y-85728495D01*
X196761924Y-85710006D01*
X196740010Y-85691792D01*
X196718337Y-85673880D01*
X196696943Y-85656298D01*
X196675872Y-85639080D01*
X196655174Y-85622267D01*
X196634911Y-85605904D01*
X196615156Y-85590049D01*
X196595999Y-85574769D01*
X196577555Y-85560154D01*
X196559975Y-85546316D01*
X196543465Y-85533411D01*
X196528330Y-85521669D01*
X196515068Y-85511462D01*
X196504657Y-85503520D01*
X196500000Y-85500000D01*
D11*
X196000000Y-24500000D02*
X54000000Y-24500000D01*
X200750000Y-42250000D02*
X200750000Y-29750000D01*
X184250000Y-60625000D02*
X200000000Y-44125000D01*
X186750000Y-78750000D02*
X186750000Y-70000000D01*
X196500000Y-85500000D02*
X188500000Y-82250000D01*
X199500000Y-99000000D02*
X199500000Y-90000000D01*
X178000000Y-124750000D02*
X198500000Y-101750000D01*
X55750000Y-124750000D02*
X178000000Y-124750000D01*
X54000000Y-25000000D02*
X55750000Y-124750000D01*
M02*
