%TF.GenerationSoftware,KiCad,Pcbnew,9.0.6*%
%TF.CreationDate,2026-04-25T20:10:33+07:00*%
%TF.ProjectId,Untitled,556e7469-746c-4656-942e-6b696361645f,rev?*%
%TF.SameCoordinates,Original*%
%TF.FileFunction,Legend,Top*%
%TF.FilePolarity,Positive*%
%FSLAX46Y46*%
G04 Gerber Fmt 4.6, Leading zero omitted, Abs format (unit mm)*
G04 Created by KiCad (PCBNEW 9.0.6) date 2026-04-25 20:10:33*
%MOMM*%
%LPD*%
G01*
G04 APERTURE LIST*
%ADD10C,0.150000*%
%ADD11C,0.120000*%
G04 APERTURE END LIST*
D10*
X78968095Y-46844819D02*
X78968095Y-45844819D01*
X78968095Y-46321009D02*
X79539523Y-46321009D01*
X79539523Y-46844819D02*
X79539523Y-45844819D01*
X80444285Y-46178152D02*
X80444285Y-46844819D01*
X80206190Y-45797200D02*
X79968095Y-46511485D01*
X79968095Y-46511485D02*
X80587142Y-46511485D01*
X92778095Y-89064819D02*
X92778095Y-88064819D01*
X92778095Y-88541009D02*
X93349523Y-88541009D01*
X93349523Y-89064819D02*
X93349523Y-88064819D01*
X93730476Y-88064819D02*
X94349523Y-88064819D01*
X94349523Y-88064819D02*
X94016190Y-88445771D01*
X94016190Y-88445771D02*
X94159047Y-88445771D01*
X94159047Y-88445771D02*
X94254285Y-88493390D01*
X94254285Y-88493390D02*
X94301904Y-88541009D01*
X94301904Y-88541009D02*
X94349523Y-88636247D01*
X94349523Y-88636247D02*
X94349523Y-88874342D01*
X94349523Y-88874342D02*
X94301904Y-88969580D01*
X94301904Y-88969580D02*
X94254285Y-89017200D01*
X94254285Y-89017200D02*
X94159047Y-89064819D01*
X94159047Y-89064819D02*
X93873333Y-89064819D01*
X93873333Y-89064819D02*
X93778095Y-89017200D01*
X93778095Y-89017200D02*
X93730476Y-88969580D01*
X184068095Y-46814819D02*
X184068095Y-45814819D01*
X184068095Y-46291009D02*
X184639523Y-46291009D01*
X184639523Y-46814819D02*
X184639523Y-45814819D01*
X185068095Y-45910057D02*
X185115714Y-45862438D01*
X185115714Y-45862438D02*
X185210952Y-45814819D01*
X185210952Y-45814819D02*
X185449047Y-45814819D01*
X185449047Y-45814819D02*
X185544285Y-45862438D01*
X185544285Y-45862438D02*
X185591904Y-45910057D01*
X185591904Y-45910057D02*
X185639523Y-46005295D01*
X185639523Y-46005295D02*
X185639523Y-46100533D01*
X185639523Y-46100533D02*
X185591904Y-46243390D01*
X185591904Y-46243390D02*
X185020476Y-46814819D01*
X185020476Y-46814819D02*
X185639523Y-46814819D01*
X173268095Y-113584819D02*
X173268095Y-112584819D01*
X173268095Y-113061009D02*
X173839523Y-113061009D01*
X173839523Y-113584819D02*
X173839523Y-112584819D01*
X174839523Y-113584819D02*
X174268095Y-113584819D01*
X174553809Y-113584819D02*
X174553809Y-112584819D01*
X174553809Y-112584819D02*
X174458571Y-112727676D01*
X174458571Y-112727676D02*
X174363333Y-112822914D01*
X174363333Y-112822914D02*
X174268095Y-112870533D01*
X75786667Y-86173200D02*
X75929524Y-86220819D01*
X75929524Y-86220819D02*
X76167619Y-86220819D01*
X76167619Y-86220819D02*
X76262857Y-86173200D01*
X76262857Y-86173200D02*
X76310476Y-86125580D01*
X76310476Y-86125580D02*
X76358095Y-86030342D01*
X76358095Y-86030342D02*
X76358095Y-85935104D01*
X76358095Y-85935104D02*
X76310476Y-85839866D01*
X76310476Y-85839866D02*
X76262857Y-85792247D01*
X76262857Y-85792247D02*
X76167619Y-85744628D01*
X76167619Y-85744628D02*
X75977143Y-85697009D01*
X75977143Y-85697009D02*
X75881905Y-85649390D01*
X75881905Y-85649390D02*
X75834286Y-85601771D01*
X75834286Y-85601771D02*
X75786667Y-85506533D01*
X75786667Y-85506533D02*
X75786667Y-85411295D01*
X75786667Y-85411295D02*
X75834286Y-85316057D01*
X75834286Y-85316057D02*
X75881905Y-85268438D01*
X75881905Y-85268438D02*
X75977143Y-85220819D01*
X75977143Y-85220819D02*
X76215238Y-85220819D01*
X76215238Y-85220819D02*
X76358095Y-85268438D01*
X76691429Y-85220819D02*
X76929524Y-86220819D01*
X76929524Y-86220819D02*
X77120000Y-85506533D01*
X77120000Y-85506533D02*
X77310476Y-86220819D01*
X77310476Y-86220819D02*
X77548572Y-85220819D01*
X78358095Y-85554152D02*
X78358095Y-86220819D01*
X78120000Y-85173200D02*
X77881905Y-85887485D01*
X77881905Y-85887485D02*
X78500952Y-85887485D01*
D11*
%TO.C,D29*%
X145390000Y-107610000D02*
X145390000Y-108260000D01*
X146510000Y-108860000D02*
X144270000Y-108860000D01*
X146510000Y-108980000D02*
X144270000Y-108980000D01*
X146510000Y-109100000D02*
X144270000Y-109100000D01*
X145390000Y-113150000D02*
X145390000Y-112500000D01*
X146510000Y-108260000D02*
X144270000Y-108260000D01*
X144270000Y-112500000D01*
X146510000Y-112500000D01*
X146510000Y-108260000D01*
%TO.C,D28*%
X110090000Y-107610000D02*
X110090000Y-108260000D01*
X111210000Y-108860000D02*
X108970000Y-108860000D01*
X111210000Y-108980000D02*
X108970000Y-108980000D01*
X111210000Y-109100000D02*
X108970000Y-109100000D01*
X110090000Y-113150000D02*
X110090000Y-112500000D01*
X111210000Y-108260000D02*
X108970000Y-108260000D01*
X108970000Y-112500000D01*
X111210000Y-112500000D01*
X111210000Y-108260000D01*
%TO.C,D27*%
X84650000Y-107720000D02*
X84650000Y-108370000D01*
X85770000Y-108970000D02*
X83530000Y-108970000D01*
X85770000Y-109090000D02*
X83530000Y-109090000D01*
X85770000Y-109210000D02*
X83530000Y-109210000D01*
X84650000Y-113260000D02*
X84650000Y-112610000D01*
X85770000Y-108370000D02*
X83530000Y-108370000D01*
X83530000Y-112610000D01*
X85770000Y-112610000D01*
X85770000Y-108370000D01*
%TO.C,D26*%
X59050000Y-107770000D02*
X59050000Y-108420000D01*
X60170000Y-109020000D02*
X57930000Y-109020000D01*
X60170000Y-109140000D02*
X57930000Y-109140000D01*
X60170000Y-109260000D02*
X57930000Y-109260000D01*
X59050000Y-113310000D02*
X59050000Y-112660000D01*
X60170000Y-108420000D02*
X57930000Y-108420000D01*
X57930000Y-112660000D01*
X60170000Y-112660000D01*
X60170000Y-108420000D01*
%TO.C,D25*%
X179460000Y-88650000D02*
X179460000Y-89300000D01*
X180580000Y-89900000D02*
X178340000Y-89900000D01*
X180580000Y-90020000D02*
X178340000Y-90020000D01*
X180580000Y-90140000D02*
X178340000Y-90140000D01*
X179460000Y-94190000D02*
X179460000Y-93540000D01*
X180580000Y-89300000D02*
X178340000Y-89300000D01*
X178340000Y-93540000D01*
X180580000Y-93540000D01*
X180580000Y-89300000D01*
%TO.C,D24*%
X160650000Y-88650000D02*
X160650000Y-89300000D01*
X161770000Y-89900000D02*
X159530000Y-89900000D01*
X161770000Y-90020000D02*
X159530000Y-90020000D01*
X161770000Y-90140000D02*
X159530000Y-90140000D01*
X160650000Y-94190000D02*
X160650000Y-93540000D01*
X161770000Y-89300000D02*
X159530000Y-89300000D01*
X159530000Y-93540000D01*
X161770000Y-93540000D01*
X161770000Y-89300000D01*
%TO.C,D23*%
X141840000Y-88760000D02*
X141840000Y-89410000D01*
X142960000Y-90010000D02*
X140720000Y-90010000D01*
X142960000Y-90130000D02*
X140720000Y-90130000D01*
X142960000Y-90250000D02*
X140720000Y-90250000D01*
X141840000Y-94300000D02*
X141840000Y-93650000D01*
X142960000Y-89410000D02*
X140720000Y-89410000D01*
X140720000Y-93650000D01*
X142960000Y-93650000D01*
X142960000Y-89410000D01*
%TO.C,D22*%
X123040000Y-88760000D02*
X123040000Y-89410000D01*
X124160000Y-90010000D02*
X121920000Y-90010000D01*
X124160000Y-90130000D02*
X121920000Y-90130000D01*
X124160000Y-90250000D02*
X121920000Y-90250000D01*
X123040000Y-94300000D02*
X123040000Y-93650000D01*
X124160000Y-89410000D02*
X121920000Y-89410000D01*
X121920000Y-93650000D01*
X124160000Y-93650000D01*
X124160000Y-89410000D01*
%TO.C,D21*%
X104230000Y-88650000D02*
X104230000Y-89300000D01*
X105350000Y-89900000D02*
X103110000Y-89900000D01*
X105350000Y-90020000D02*
X103110000Y-90020000D01*
X105350000Y-90140000D02*
X103110000Y-90140000D01*
X104230000Y-94190000D02*
X104230000Y-93540000D01*
X105350000Y-89300000D02*
X103110000Y-89300000D01*
X103110000Y-93540000D01*
X105350000Y-93540000D01*
X105350000Y-89300000D01*
%TO.C,D20*%
X68460000Y-88760000D02*
X68460000Y-89410000D01*
X69580000Y-90010000D02*
X67340000Y-90010000D01*
X69580000Y-90130000D02*
X67340000Y-90130000D01*
X69580000Y-90250000D02*
X67340000Y-90250000D01*
X68460000Y-94300000D02*
X68460000Y-93650000D01*
X69580000Y-89410000D02*
X67340000Y-89410000D01*
X67340000Y-93650000D01*
X69580000Y-93650000D01*
X69580000Y-89410000D01*
%TO.C,D19*%
X166510000Y-69800000D02*
X166510000Y-70450000D01*
X167630000Y-71050000D02*
X165390000Y-71050000D01*
X167630000Y-71170000D02*
X165390000Y-71170000D01*
X167630000Y-71290000D02*
X165390000Y-71290000D01*
X166510000Y-75340000D02*
X166510000Y-74690000D01*
X167630000Y-70450000D02*
X165390000Y-70450000D01*
X165390000Y-74690000D01*
X167630000Y-74690000D01*
X167630000Y-70450000D01*
%TO.C,D18*%
X147700000Y-69950000D02*
X147700000Y-70600000D01*
X148820000Y-71200000D02*
X146580000Y-71200000D01*
X148820000Y-71320000D02*
X146580000Y-71320000D01*
X148820000Y-71440000D02*
X146580000Y-71440000D01*
X147700000Y-75490000D02*
X147700000Y-74840000D01*
X148820000Y-70600000D02*
X146580000Y-70600000D01*
X146580000Y-74840000D01*
X148820000Y-74840000D01*
X148820000Y-70600000D01*
%TO.C,D17*%
X128890000Y-69840000D02*
X128890000Y-70490000D01*
X130010000Y-71090000D02*
X127770000Y-71090000D01*
X130010000Y-71210000D02*
X127770000Y-71210000D01*
X130010000Y-71330000D02*
X127770000Y-71330000D01*
X128890000Y-75380000D02*
X128890000Y-74730000D01*
X130010000Y-70490000D02*
X127770000Y-70490000D01*
X127770000Y-74730000D01*
X130010000Y-74730000D01*
X130010000Y-70490000D01*
%TO.C,D16*%
X110090000Y-69840000D02*
X110090000Y-70490000D01*
X111210000Y-71090000D02*
X108970000Y-71090000D01*
X111210000Y-71210000D02*
X108970000Y-71210000D01*
X111210000Y-71330000D02*
X108970000Y-71330000D01*
X110090000Y-75380000D02*
X110090000Y-74730000D01*
X111210000Y-70490000D02*
X108970000Y-70490000D01*
X108970000Y-74730000D01*
X111210000Y-74730000D01*
X111210000Y-70490000D01*
%TO.C,D15*%
X91280000Y-69800000D02*
X91280000Y-70450000D01*
X92400000Y-71050000D02*
X90160000Y-71050000D01*
X92400000Y-71170000D02*
X90160000Y-71170000D01*
X92400000Y-71290000D02*
X90160000Y-71290000D01*
X91280000Y-75340000D02*
X91280000Y-74690000D01*
X92400000Y-70450000D02*
X90160000Y-70450000D01*
X90160000Y-74690000D01*
X92400000Y-74690000D01*
X92400000Y-70450000D01*
%TO.C,D14*%
X63370000Y-69800000D02*
X63370000Y-70450000D01*
X64490000Y-71050000D02*
X62250000Y-71050000D01*
X64490000Y-71170000D02*
X62250000Y-71170000D01*
X64490000Y-71290000D02*
X62250000Y-71290000D01*
X63370000Y-75340000D02*
X63370000Y-74690000D01*
X64490000Y-70450000D02*
X62250000Y-70450000D01*
X62250000Y-74690000D01*
X64490000Y-74690000D01*
X64490000Y-70450000D01*
%TO.C,D13*%
X161750000Y-50660000D02*
X161750000Y-51310000D01*
X162870000Y-51910000D02*
X160630000Y-51910000D01*
X162870000Y-52030000D02*
X160630000Y-52030000D01*
X162870000Y-52150000D02*
X160630000Y-52150000D01*
X161750000Y-56200000D02*
X161750000Y-55550000D01*
X162870000Y-51310000D02*
X160630000Y-51310000D01*
X160630000Y-55550000D01*
X162870000Y-55550000D01*
X162870000Y-51310000D01*
%TO.C,D12*%
X142920000Y-50760000D02*
X142920000Y-51410000D01*
X144040000Y-52010000D02*
X141800000Y-52010000D01*
X144040000Y-52130000D02*
X141800000Y-52130000D01*
X144040000Y-52250000D02*
X141800000Y-52250000D01*
X142920000Y-56300000D02*
X142920000Y-55650000D01*
X144040000Y-51410000D02*
X141800000Y-51410000D01*
X141800000Y-55650000D01*
X144040000Y-55650000D01*
X144040000Y-51410000D01*
%TO.C,D11*%
X124030000Y-50760000D02*
X124030000Y-51410000D01*
X125150000Y-52010000D02*
X122910000Y-52010000D01*
X125150000Y-52130000D02*
X122910000Y-52130000D01*
X125150000Y-52250000D02*
X122910000Y-52250000D01*
X124030000Y-56300000D02*
X124030000Y-55650000D01*
X125150000Y-51410000D02*
X122910000Y-51410000D01*
X122910000Y-55650000D01*
X125150000Y-55650000D01*
X125150000Y-51410000D01*
%TO.C,D10*%
X105280000Y-50690000D02*
X105280000Y-51340000D01*
X106400000Y-51940000D02*
X104160000Y-51940000D01*
X106400000Y-52060000D02*
X104160000Y-52060000D01*
X106400000Y-52180000D02*
X104160000Y-52180000D01*
X105280000Y-56230000D02*
X105280000Y-55580000D01*
X106400000Y-51340000D02*
X104160000Y-51340000D01*
X104160000Y-55580000D01*
X106400000Y-55580000D01*
X106400000Y-51340000D01*
%TO.C,D9*%
X86400000Y-50730000D02*
X86400000Y-51380000D01*
X87520000Y-51980000D02*
X85280000Y-51980000D01*
X87520000Y-52100000D02*
X85280000Y-52100000D01*
X87520000Y-52220000D02*
X85280000Y-52220000D01*
X86400000Y-56270000D02*
X86400000Y-55620000D01*
X87520000Y-51380000D02*
X85280000Y-51380000D01*
X85280000Y-55620000D01*
X87520000Y-55620000D01*
X87520000Y-51380000D01*
%TO.C,D8*%
X60820000Y-50750000D02*
X60820000Y-51400000D01*
X61940000Y-52000000D02*
X59700000Y-52000000D01*
X61940000Y-52120000D02*
X59700000Y-52120000D01*
X61940000Y-52240000D02*
X59700000Y-52240000D01*
X60820000Y-56290000D02*
X60820000Y-55640000D01*
X61940000Y-51400000D02*
X59700000Y-51400000D01*
X59700000Y-55640000D01*
X61940000Y-55640000D01*
X61940000Y-51400000D01*
%TO.C,D7*%
X197430000Y-41670000D02*
X197430000Y-41020000D01*
X196310000Y-40420000D02*
X198550000Y-40420000D01*
X196310000Y-40300000D02*
X198550000Y-40300000D01*
X196310000Y-40180000D02*
X198550000Y-40180000D01*
X197430000Y-36130000D02*
X197430000Y-36780000D01*
X196310000Y-41020000D02*
X198550000Y-41020000D01*
X198550000Y-36780000D01*
X196310000Y-36780000D01*
X196310000Y-41020000D01*
%TO.C,D6*%
X178430000Y-41590000D02*
X178430000Y-40940000D01*
X177310000Y-40340000D02*
X179550000Y-40340000D01*
X177310000Y-40220000D02*
X179550000Y-40220000D01*
X177310000Y-40100000D02*
X179550000Y-40100000D01*
X178430000Y-36050000D02*
X178430000Y-36700000D01*
X177310000Y-40940000D02*
X179550000Y-40940000D01*
X179550000Y-36700000D01*
X177310000Y-36700000D01*
X177310000Y-40940000D01*
%TO.C,D5*%
X159650000Y-41560000D02*
X159650000Y-40910000D01*
X158530000Y-40310000D02*
X160770000Y-40310000D01*
X158530000Y-40190000D02*
X160770000Y-40190000D01*
X158530000Y-40070000D02*
X160770000Y-40070000D01*
X159650000Y-36020000D02*
X159650000Y-36670000D01*
X158530000Y-40910000D02*
X160770000Y-40910000D01*
X160770000Y-36670000D01*
X158530000Y-36670000D01*
X158530000Y-40910000D01*
%TO.C,D4*%
X140920000Y-41630000D02*
X140920000Y-40980000D01*
X139800000Y-40380000D02*
X142040000Y-40380000D01*
X139800000Y-40260000D02*
X142040000Y-40260000D01*
X139800000Y-40140000D02*
X142040000Y-40140000D01*
X140920000Y-36090000D02*
X140920000Y-36740000D01*
X139800000Y-40980000D02*
X142040000Y-40980000D01*
X142040000Y-36740000D01*
X139800000Y-36740000D01*
X139800000Y-40980000D01*
%TO.C,D3*%
X122140000Y-41560000D02*
X122140000Y-40910000D01*
X121020000Y-40310000D02*
X123260000Y-40310000D01*
X121020000Y-40190000D02*
X123260000Y-40190000D01*
X121020000Y-40070000D02*
X123260000Y-40070000D01*
X122140000Y-36020000D02*
X122140000Y-36670000D01*
X121020000Y-40910000D02*
X123260000Y-40910000D01*
X123260000Y-36670000D01*
X121020000Y-36670000D01*
X121020000Y-40910000D01*
%TO.C,D2*%
X103300000Y-41600000D02*
X103300000Y-40950000D01*
X102180000Y-40350000D02*
X104420000Y-40350000D01*
X102180000Y-40230000D02*
X104420000Y-40230000D01*
X102180000Y-40110000D02*
X104420000Y-40110000D01*
X103300000Y-36060000D02*
X103300000Y-36710000D01*
X102180000Y-40950000D02*
X104420000Y-40950000D01*
X104420000Y-36710000D01*
X102180000Y-36710000D01*
X102180000Y-40950000D01*
%TO.C,D1*%
X56910000Y-41520000D02*
X56910000Y-40870000D01*
X55790000Y-40270000D02*
X58030000Y-40270000D01*
X55790000Y-40150000D02*
X58030000Y-40150000D01*
X55790000Y-40030000D02*
X58030000Y-40030000D01*
X56910000Y-35980000D02*
X56910000Y-36630000D01*
X55790000Y-40870000D02*
X58030000Y-40870000D01*
X58030000Y-36630000D01*
X55790000Y-36630000D01*
X55790000Y-40870000D01*
%TO.C,SW29*%
X181105000Y-86665000D02*
X195075000Y-86665000D01*
X181105000Y-100635000D02*
X181105000Y-86665000D01*
X195075000Y-86665000D02*
X195075000Y-100635000D01*
X195075000Y-100635000D02*
X181105000Y-100635000D01*
%TO.C,SW28*%
X162315000Y-86665000D02*
X176285000Y-86665000D01*
X162315000Y-100635000D02*
X162315000Y-86665000D01*
X176285000Y-86665000D02*
X176285000Y-100635000D01*
X176285000Y-100635000D02*
X162315000Y-100635000D01*
%TO.C,SW27*%
X143505000Y-86675000D02*
X157475000Y-86675000D01*
X143505000Y-100645000D02*
X143505000Y-86675000D01*
X157475000Y-86675000D02*
X157475000Y-100645000D01*
X157475000Y-100645000D02*
X143505000Y-100645000D01*
%TO.C,SW26*%
X124715000Y-86665000D02*
X138685000Y-86665000D01*
X124715000Y-100635000D02*
X124715000Y-86665000D01*
X138685000Y-86665000D02*
X138685000Y-100635000D01*
X138685000Y-100635000D02*
X124715000Y-100635000D01*
%TO.C,SW25*%
X105905000Y-86655000D02*
X119875000Y-86655000D01*
X105905000Y-100625000D02*
X105905000Y-86655000D01*
X119875000Y-86655000D02*
X119875000Y-100625000D01*
X119875000Y-100625000D02*
X105905000Y-100625000D01*
%TO.C,SW24*%
X168095000Y-67655000D02*
X182065000Y-67655000D01*
X168095000Y-81625000D02*
X168095000Y-67655000D01*
X182065000Y-67655000D02*
X182065000Y-81625000D01*
X182065000Y-81625000D02*
X168095000Y-81625000D01*
%TO.C,SW23*%
X149335000Y-67655000D02*
X163305000Y-67655000D01*
X149335000Y-81625000D02*
X149335000Y-67655000D01*
X163305000Y-67655000D02*
X163305000Y-81625000D01*
X163305000Y-81625000D02*
X149335000Y-81625000D01*
%TO.C,SW22*%
X130525000Y-67665000D02*
X144495000Y-67665000D01*
X130525000Y-81635000D02*
X130525000Y-67665000D01*
X144495000Y-67665000D02*
X144495000Y-81635000D01*
X144495000Y-81635000D02*
X130525000Y-81635000D01*
%TO.C,SW21*%
X111715000Y-67655000D02*
X125685000Y-67655000D01*
X111715000Y-81625000D02*
X111715000Y-67655000D01*
X125685000Y-67655000D02*
X125685000Y-81625000D01*
X125685000Y-81625000D02*
X111715000Y-81625000D01*
%TO.C,SW20*%
X92915000Y-67665000D02*
X106885000Y-67665000D01*
X92915000Y-81635000D02*
X92915000Y-67665000D01*
X106885000Y-67665000D02*
X106885000Y-81635000D01*
X106885000Y-81635000D02*
X92915000Y-81635000D01*
%TO.C,SW19*%
X163135000Y-48655000D02*
X177105000Y-48655000D01*
X163135000Y-62625000D02*
X163135000Y-48655000D01*
X177105000Y-48655000D02*
X177105000Y-62625000D01*
X177105000Y-62625000D02*
X163135000Y-62625000D01*
%TO.C,SW18*%
X144305000Y-48665000D02*
X158275000Y-48665000D01*
X144305000Y-62635000D02*
X144305000Y-48665000D01*
X158275000Y-48665000D02*
X158275000Y-62635000D01*
X158275000Y-62635000D02*
X144305000Y-62635000D01*
%TO.C,SW17*%
X125545000Y-48665000D02*
X139515000Y-48665000D01*
X125545000Y-62635000D02*
X125545000Y-48665000D01*
X139515000Y-48665000D02*
X139515000Y-62635000D01*
X139515000Y-62635000D02*
X125545000Y-62635000D01*
%TO.C,SW16*%
X106695000Y-48635000D02*
X120665000Y-48635000D01*
X106695000Y-62605000D02*
X106695000Y-48635000D01*
X120665000Y-48635000D02*
X120665000Y-62605000D01*
X120665000Y-62605000D02*
X106695000Y-62605000D01*
%TO.C,SW15*%
X87915000Y-48645000D02*
X101885000Y-48645000D01*
X87915000Y-62615000D02*
X87915000Y-48645000D01*
X101885000Y-48645000D02*
X101885000Y-62615000D01*
X101885000Y-62615000D02*
X87915000Y-62615000D01*
%TO.C,SW1*%
X72445000Y-43625000D02*
X58475000Y-43625000D01*
X72445000Y-29655000D02*
X72445000Y-43625000D01*
X58475000Y-43625000D02*
X58475000Y-29655000D01*
X58475000Y-29655000D02*
X72445000Y-29655000D01*
%TO.C,SW14*%
X147145000Y-105665000D02*
X161115000Y-105665000D01*
X147145000Y-119635000D02*
X147145000Y-105665000D01*
X161115000Y-105665000D02*
X161115000Y-119635000D01*
X161115000Y-119635000D02*
X147145000Y-119635000D01*
%TO.C,SW13*%
X111685000Y-105665000D02*
X125655000Y-105665000D01*
X111685000Y-119635000D02*
X111685000Y-105665000D01*
X125655000Y-105665000D02*
X125655000Y-119635000D01*
X125655000Y-119635000D02*
X111685000Y-119635000D01*
%TO.C,SW12*%
X86225000Y-105655000D02*
X100195000Y-105655000D01*
X86225000Y-119625000D02*
X86225000Y-105655000D01*
X100195000Y-105655000D02*
X100195000Y-119625000D01*
X100195000Y-119625000D02*
X86225000Y-119625000D01*
%TO.C,SW11*%
X60705000Y-105645000D02*
X74675000Y-105645000D01*
X60705000Y-119615000D02*
X60705000Y-105645000D01*
X74675000Y-105645000D02*
X74675000Y-119615000D01*
X74675000Y-119615000D02*
X60705000Y-119615000D01*
%TO.C,SW10*%
X181885000Y-29665000D02*
X195855000Y-29665000D01*
X181885000Y-43635000D02*
X181885000Y-29665000D01*
X195855000Y-29665000D02*
X195855000Y-43635000D01*
X195855000Y-43635000D02*
X181885000Y-43635000D01*
%TO.C,SW9*%
X163085000Y-29635000D02*
X177055000Y-29635000D01*
X163085000Y-43605000D02*
X163085000Y-29635000D01*
X177055000Y-29635000D02*
X177055000Y-43605000D01*
X177055000Y-43605000D02*
X163085000Y-43605000D01*
%TO.C,SW8*%
X144275000Y-29655000D02*
X158245000Y-29655000D01*
X144275000Y-43625000D02*
X144275000Y-29655000D01*
X158245000Y-29655000D02*
X158245000Y-43625000D01*
X158245000Y-43625000D02*
X144275000Y-43625000D01*
%TO.C,SW7*%
X125515000Y-29665000D02*
X139485000Y-29665000D01*
X125515000Y-43635000D02*
X125515000Y-29665000D01*
X139485000Y-29665000D02*
X139485000Y-43635000D01*
X139485000Y-43635000D02*
X125515000Y-43635000D01*
%TO.C,SW6*%
X106725000Y-29655000D02*
X120695000Y-29655000D01*
X106725000Y-43625000D02*
X106725000Y-29655000D01*
X120695000Y-29655000D02*
X120695000Y-43625000D01*
X120695000Y-43625000D02*
X106725000Y-43625000D01*
%TO.C,SW5*%
X87915000Y-29655000D02*
X101885000Y-29655000D01*
X87915000Y-43625000D02*
X87915000Y-29655000D01*
X101885000Y-29655000D02*
X101885000Y-43625000D01*
X101885000Y-43625000D02*
X87915000Y-43625000D01*
%TO.C,SW4*%
X70135000Y-86655000D02*
X84105000Y-86655000D01*
X70135000Y-100625000D02*
X70135000Y-86655000D01*
X84105000Y-86655000D02*
X84105000Y-100625000D01*
X84105000Y-100625000D02*
X70135000Y-100625000D01*
%TO.C,SW3*%
X65115000Y-67685000D02*
X79085000Y-67685000D01*
X65115000Y-81655000D02*
X65115000Y-67685000D01*
X79085000Y-67685000D02*
X79085000Y-81655000D01*
X79085000Y-81655000D02*
X65115000Y-81655000D01*
%TO.C,SW2*%
X62425000Y-48685000D02*
X76395000Y-48685000D01*
X62425000Y-62655000D02*
X62425000Y-48685000D01*
X76395000Y-48685000D02*
X76395000Y-62655000D01*
X76395000Y-62655000D02*
X62425000Y-62655000D01*
%TD*%
M02*
