M48
; DRILL file {KiCad 9.0.6} date 2026-04-25T20:10:27+0700
; FORMAT={-:-/ absolute / metric / decimal}
; #@! TF.CreationDate,2026-04-25T20:10:27+07:00
; #@! TF.GenerationSoftware,Kicad,Pcbnew,9.0.6
; #@! TF.FileFunction,MixedPlating,1,2
FMAT,2
METRIC
; #@! TA.AperFunction,Plated,PTH,ComponentDrill
T1C0.800
; #@! TA.AperFunction,Plated,PTH,ViaDrill
T2C1.000
; #@! TA.AperFunction,Plated,PTH,ComponentDrill
T3C1.500
; #@! TA.AperFunction,NonPlated,NPTH,ComponentDrill
T4C3.200
; #@! TA.AperFunction,NonPlated,NPTH,ComponentDrill
T5C4.000
%
G90
G05
T1
X56.91Y-34.94
X56.91Y-42.56
X59.05Y-106.73
X59.05Y-114.35
X60.82Y-49.71
X60.82Y-57.33
X63.37Y-68.76
X63.37Y-76.38
X68.46Y-87.72
X68.46Y-95.34
X84.65Y-106.68
X84.65Y-114.3
X86.4Y-49.69
X86.4Y-57.31
X91.28Y-68.76
X91.28Y-76.38
X103.3Y-35.02
X103.3Y-42.64
X104.23Y-87.61
X104.23Y-95.23
X105.28Y-49.65
X105.28Y-57.27
X110.09Y-68.8
X110.09Y-76.42
X110.09Y-106.57
X110.09Y-114.19
X122.14Y-34.98
X122.14Y-42.6
X123.04Y-87.72
X123.04Y-95.34
X124.03Y-49.72
X124.03Y-57.34
X128.89Y-68.8
X128.89Y-76.42
X140.92Y-35.05
X140.92Y-42.67
X141.84Y-87.72
X141.84Y-95.34
X142.92Y-49.72
X142.92Y-57.34
X145.39Y-106.57
X145.39Y-114.19
X147.7Y-68.91
X147.7Y-76.53
X159.65Y-34.98
X159.65Y-42.6
X160.65Y-87.61
X160.65Y-95.23
X161.75Y-49.62
X161.75Y-57.24
X166.51Y-68.76
X166.51Y-76.38
X178.43Y-35.01
X178.43Y-42.63
X179.46Y-87.61
X179.46Y-95.23
X197.43Y-35.09
X197.43Y-42.71
T2
X82.35Y-58.47
X94.15Y-51.78
X95.07Y-40.67
T3
X61.65Y-34.1
X63.88Y-110.09
X65.6Y-53.13
X68.0Y-31.56
X68.29Y-72.13
X70.23Y-107.55
X71.95Y-50.59
X73.31Y-91.1
X74.64Y-69.59
X79.66Y-88.56
X89.4Y-110.1
X91.09Y-34.1
X91.09Y-53.09
X95.75Y-107.56
X96.09Y-72.11
X97.44Y-31.56
X97.44Y-50.55
X102.44Y-69.57
X109.08Y-91.1
X109.87Y-53.08
X109.9Y-34.1
X114.86Y-110.11
X114.89Y-72.1
X115.43Y-88.56
X116.22Y-50.54
X116.25Y-31.56
X121.21Y-107.57
X121.24Y-69.56
X127.89Y-91.11
X128.69Y-34.11
X128.72Y-53.11
X133.7Y-72.11
X134.24Y-88.57
X135.04Y-31.57
X135.07Y-50.57
X140.05Y-69.57
X146.68Y-91.12
X147.45Y-34.1
X147.48Y-53.11
X150.32Y-110.11
X152.51Y-72.1
X153.03Y-88.58
X153.8Y-31.56
X153.83Y-50.57
X156.67Y-107.57
X158.86Y-69.56
X165.49Y-91.11
X166.26Y-34.08
X166.31Y-53.1
X171.27Y-72.1
X171.84Y-88.57
X172.61Y-31.54
X172.66Y-50.56
X177.62Y-69.56
X184.28Y-91.11
X185.06Y-34.11
X190.63Y-88.57
X191.41Y-31.57
T4
X79.73Y-50.54
X93.54Y-92.76
X174.03Y-117.28
X184.83Y-50.51
T5
X65.46Y-36.64
X67.69Y-112.63
X69.41Y-55.67
X72.1Y-74.67
X77.12Y-93.64
X93.21Y-112.64
X94.9Y-36.64
X94.9Y-55.63
X99.9Y-74.65
X112.89Y-93.64
X113.68Y-55.62
X113.71Y-36.64
X118.67Y-112.65
X118.7Y-74.64
X131.7Y-93.65
X132.5Y-36.65
X132.53Y-55.65
X137.51Y-74.65
X150.49Y-93.66
X151.26Y-36.64
X151.29Y-55.65
X154.13Y-112.65
X156.32Y-74.64
X169.3Y-93.65
X170.07Y-36.62
X170.12Y-55.64
X175.08Y-74.64
X188.09Y-93.65
X188.87Y-36.65
M30
